<svg width="20" height="22" viewBox="0 0 20 22" fill="none" xmlns="http://www.w3.org/2000/svg">
<path d="M15.9336 18.6915H5.58203C4.22266 18.6915 3.11719 17.4754 3.11719 15.9801V4.59341C3.11719 3.0981 4.22266 1.88208 5.58203 1.88208H15.9336C17.293 1.88208 18.3984 3.0981 18.3984 4.59341V15.9801C18.3984 17.4754 17.293 18.6915 15.9336 18.6915ZM5.58203 2.96704C4.76758 2.96704 4.10352 3.69751 4.10352 4.59341V15.9801C4.10352 16.876 4.76758 17.6065 5.58203 17.6065H15.9336C16.748 17.6065 17.4121 16.876 17.4121 15.9801V4.59341C17.4121 3.69751 16.748 2.96704 15.9336 2.96704H5.58203Z" fill="#454F5E"/>
<path d="M14.7793 7.75151H6.7793C6.50781 7.75151 6.28711 7.50659 6.28711 7.21011C6.28711 6.91147 6.50977 6.6687 6.7793 6.6687H14.7793C15.0508 6.6687 15.2715 6.91362 15.2715 7.21011C15.2734 7.50659 15.0508 7.75151 14.7793 7.75151ZM11.1152 10.8302H6.66211C6.45508 10.8302 6.28711 10.6455 6.28711 10.4177V10.1578C6.28711 9.93003 6.45508 9.74526 6.66211 9.74526H11.1152C11.3223 9.74526 11.4902 9.93003 11.4902 10.1578V10.4177C11.4902 10.6433 11.3223 10.8302 11.1152 10.8302ZM11.1152 13.9068H6.66211C6.45508 13.9068 6.28711 13.722 6.28711 13.4943V13.2343C6.28711 13.0066 6.45508 12.8218 6.66211 12.8218H11.1152C11.3223 12.8218 11.4902 13.0066 11.4902 13.2343V13.4943C11.4902 13.722 11.3223 13.9068 11.1152 13.9068Z" fill="#454F5E"/>
</svg>
