<svg width="20" height="20" viewBox="0 0 20 20" fill="none" xmlns="http://www.w3.org/2000/svg">
<path d="M11.2904 10.0854C12.1294 9.66209 13.1731 9.13519 13.1731 7.70796C13.1731 6.08198 11.771 4.94629 9.76294 4.94629C8.30221 4.94629 7.01513 5.7838 6.56053 7.03032C6.45581 7.31758 6.36557 7.79468 6.45491 8.19495C6.50903 8.43652 6.74999 8.588 6.99076 8.53494C7.23264 8.48081 7.38464 8.24094 7.33077 7.9991C7.29442 7.83611 7.32552 7.55176 7.4035 7.33767C7.67474 6.59395 8.50941 5.84366 9.76292 5.84366C11.2426 5.84366 12.2758 6.61018 12.2758 7.70798C12.2758 8.54085 11.7478 8.8496 10.8864 9.28437C10.1362 9.66301 9.20256 10.1343 9.20256 11.2987V12.4089C9.20256 12.6568 9.40325 12.8578 9.65124 12.8578C9.89921 12.8578 10.0999 12.6568 10.0999 12.4089V11.2987C10.0999 10.7148 10.5302 10.4692 11.2904 10.0854Z" fill="#454f5e"/>
<path d="M8.97852 14.3363C8.97852 14.7081 9.27981 15.0094 9.65154 15.0094C10.0232 15.0094 10.3246 14.7081 10.3246 14.3363C10.3246 13.9647 10.0232 13.6633 9.65154 13.6633C9.27981 13.6633 8.97852 13.9647 8.97852 14.3363Z" fill="#454f5e"/>
<path d="M18.4849 9.99001C18.4849 5.28194 14.6683 1.46533 9.9598 1.46533C5.25163 1.46489 1.43506 5.28142 1.43506 9.99001C1.43506 14.6982 5.25167 18.5148 9.96016 18.5148C11.8928 18.5148 13.6632 17.8571 15.093 16.7735C15.1518 16.7071 15.1904 16.6218 15.1904 16.5261C15.1904 16.3174 15.0211 16.1482 14.8125 16.1482C14.7038 16.1482 14.6072 16.1912 14.539 16.264H14.5337C13.2542 17.2057 11.6791 17.7696 9.96873 17.7696C5.70546 17.7696 2.24893 14.3126 2.24893 10.0493C2.24893 5.78558 5.70546 2.32951 9.96873 2.32951C14.2325 2.32951 17.6885 5.78558 17.6885 10.0493C17.6885 11.3517 17.3833 12.5771 16.8137 13.654V13.6603C16.8034 13.6961 16.7916 13.7312 16.7916 13.7698C16.7916 13.9786 16.9609 14.1478 17.1697 14.1478C17.3316 14.1478 17.4677 14.0436 17.5211 13.8995V13.9022C18.1271 12.7293 18.4849 11.4018 18.4849 9.99001Z" fill="#454f5e"/>
</svg>
