<svg width="20" height="22" viewBox="0 0 20 22" fill="none" xmlns="http://www.w3.org/2000/svg">
<path d="M15.8327 18.6299H4.19849C3.00223 18.6299 2.04053 17.6593 2.04053 16.4461V4.98778C2.04053 3.77454 3.00223 2.80396 4.19849 2.80396H5.77005C5.9577 2.80396 6.12189 2.99268 6.12189 3.20837C6.12189 3.42405 5.9577 3.61278 5.77005 3.61278H4.19849C3.40098 3.61278 2.74421 4.23288 2.74421 4.98778V16.4461C2.74421 17.201 3.40098 17.8211 4.19849 17.8211H15.8327C16.6302 17.8211 17.287 17.201 17.287 16.4461V4.98778C17.287 4.23288 16.6302 3.61278 15.8327 3.61278H7.15396C6.96631 3.61278 6.80212 3.42405 6.80212 3.20837C6.80212 2.99268 6.96631 2.80396 7.15396 2.80396H15.8327C17.029 2.80396 17.9907 3.77454 17.9907 4.98778V16.4461C17.9672 17.6593 17.0055 18.6299 15.8327 18.6299Z" fill="#454f5e"/>
<path d="M6.14541 9.78669C5.69974 9.78669 5.27753 9.59797 4.94915 9.27444C4.57385 8.89699 4.33929 8.38473 4.29237 7.81856C4.19855 6.63228 4.9726 5.58081 6.00467 5.47297C6.49725 5.41905 6.98983 5.60777 7.38858 5.95826C7.78734 6.30875 7.99844 6.84797 8.04535 7.41414C8.09226 7.98032 7.92807 8.5465 7.62314 9.00483C7.29476 9.4362 6.84909 9.70581 6.35651 9.75973C6.23923 9.78669 6.19232 9.78669 6.14541 9.78669ZM6.02813 6.28179C5.37136 6.33571 4.90223 7.00973 4.94915 7.73767C4.9726 8.08816 5.11334 8.41169 5.37136 8.65434C5.60592 8.89699 5.91085 9.00483 6.23923 8.97787C6.54416 8.95091 6.82563 8.78914 7.03674 8.49258C7.24784 8.22297 7.34167 7.87248 7.31821 7.49503C7.29476 7.14454 7.15402 6.82101 6.896 6.57836C6.66144 6.36267 6.35651 6.25483 6.02813 6.28179ZM14.1909 13.8039C14.097 13.8039 14.0032 13.7769 13.9328 13.696L11.3996 10.7842C11.2588 10.6225 11.0243 10.6225 10.8835 10.7842L8.35028 13.696C8.20955 13.8578 7.99844 13.8578 7.8577 13.696C7.71697 13.5342 7.71697 13.2916 7.8577 13.1298L10.391 10.2181C10.6021 9.97542 10.8601 9.86758 11.1416 9.86758C11.423 9.86758 11.7045 10.0024 11.8922 10.2181L14.4254 13.1298C14.5662 13.2916 14.5662 13.5342 14.4254 13.696C14.3785 13.7769 14.2847 13.8039 14.1909 13.8039Z" fill="#454f5e"/>
<path d="M8.72556 14.8824C8.63174 14.8824 8.53792 14.8555 8.46755 14.7746L6.82562 12.8874C6.80216 12.8604 6.75525 12.8604 6.75525 12.8604C6.7318 12.8604 6.70834 12.8604 6.68488 12.8874L5.04296 14.7746C4.90222 14.9364 4.69111 14.9364 4.55038 14.7746C4.40964 14.6128 4.40964 14.3702 4.55038 14.2084L6.1923 12.3212C6.52069 11.9437 7.03672 11.9437 7.34165 12.3212L8.98358 14.2084C9.12432 14.3702 9.12432 14.6128 8.98358 14.7746C8.91321 14.8285 8.81939 14.8824 8.72556 14.8824Z" fill="#454f5e"/>
</svg>
