<?xml version="1.0" standalone="no"?><!DOCTYPE svg PUBLIC "-//W3C//DTD SVG 1.1//EN" "http://www.w3.org/Graphics/SVG/1.1/DTD/svg11.dtd"><svg t="1737131537408" class="icon" viewBox="0 0 1024 1024" version="1.1" xmlns="http://www.w3.org/2000/svg" p-id="8094" xmlns:xlink="http://www.w3.org/1999/xlink" width="200" height="200"><path d="M568.494298 926.72l-118.119489 10.24c-30.818043 0-46.221617 20.48-46.221618 46.08 0 25.6 20.545362 40.96 46.221618 40.96h5.130893l118.119489-10.24c30.818043 0 46.221617-20.48 46.221618-46.08-5.130894-25.6-25.676255-40.96-51.352511-40.96M671.199319 788.48l-328.671319 20.48c-30.818043 0-46.221617 20.48-46.221617 46.08 0 25.6 20.545362 40.96 46.221617 40.96h5.130894l328.682212-20.48c30.807149 0 46.221617-20.48 46.221617-46.08 0-25.6-25.687149-46.08-51.363404-40.96" fill="#454f5e" p-id="8095"></path><path d="M624.465702 360.654979c-5.261617 5.838979-22.25566 21.602043-50.372085 46.134468a90.482383 90.482383 0 0 0-23.421277 29.194893c-5.87166 11.688851-8.802043 23.955064-8.802042 37.964256v8.181106h-67.366128v-8.181106c0-22.190298 3.518638-41.461106 11.721532-57.235064 7.614638-15.763064 30.469447-40.306383 68.531745-74.174638l7.037276-8.170213c10.545021-12.854468 15.806638-26.86366 15.806639-41.461107 0-19.281702-5.860766-34.467404-16.394894-45.557106-11.133277-11.100596-26.939915-16.351319-46.86434-16.351319-25.774298 0-43.933957 7.581957-55.056341 23.94417-9.96766 13.43183-14.651915 32.702638-14.651915 57.235064h-66.777872c0-43.214979 12.298894-77.094128 38.073191-101.61566 25.196936-24.532426 59.163234-36.798638 102.508937-36.798638 38.084085 0 69.130894 9.924085 92.563063 30.948766 23.421277 20.447319 35.142809 48.476596 35.142809 84.098723 0 29.205787-7.625532 53.149957-21.678298 71.843405m-84.349276 226.009872c-8.780255 8.170213-19.325277 12.266213-32.212426 12.266213-12.898043 0-23.443064-4.673362-32.223319-12.854468-8.791149-8.170213-12.887149-18.682553-12.887149-31.537022 0-12.843574 4.096-23.345021 12.887149-31.537021 8.780255-8.170213 19.325277-12.255319 32.223319-12.255319 12.887149 0 24.009532 4.085106 32.789787 12.255319 8.202894 8.192 12.898043 18.693447 12.898043 31.537021 0 12.854468-4.684255 23.955064-13.475404 32.136171M512 0C316.840851 0 152.510638 153.6 152.510638 337.92c0 112.64 46.210723 204.8 143.795745 266.24v107.52c0 10.24 10.261787 25.6 15.392681 30.72 10.272681 5.12 20.545362 10.24 35.948936 10.24h5.141787l328.671319-25.6a45.96017 45.96017 0 0 0 46.221617-46.08v-81.92C809.86417 542.72 871.489362 445.44 871.489362 332.8 871.489362 153.6 707.148255 0 512 0" fill="#454f5e" p-id="8096"></path></svg>